<svg width="32" height="32" viewBox="0 0 32 32" fill="none" xmlns="http://www.w3.org/2000/svg">
<g clip-path="url(#clip0_1_2)">
<path d="M8.044 13.698H17.62C18.5827 13.698 19.33 13.47 19.862 13.014C20.394 12.558 20.66 11.8993 20.66 11.038C20.66 10.1767 20.394 9.518 19.862 9.062C19.33 8.606 18.5827 8.378 17.62 8.378H6.676L11.084 3.97V30H1.28V1.5H19.14C21.42 1.5 23.4087 1.90533 25.106 2.716C26.8287 3.50133 28.1587 4.60333 29.096 6.022C30.0587 7.44066 30.54 9.11267 30.54 11.038C30.54 12.9127 30.0587 14.572 29.096 16.016C28.1587 17.4347 26.8287 18.5367 25.106 19.322C23.4087 20.1073 21.42 20.5 19.14 20.5H8.044V13.698ZM11.388 16.662H22.218L31.68 30H20.47L11.388 16.662Z" fill="url(#paint0_linear_1_2)"/>
</g>
<defs>
<linearGradient id="paint0_linear_1_2" x1="27" y1="3.5" x2="-0.999997" y2="35.2859" gradientUnits="userSpaceOnUse">
<stop stop-color="#818CF8"/>
<stop offset="1" stop-color="#C084FC"/>
</linearGradient>
<clipPath id="clip0_1_2">
<rect width="32" height="32" fill="white"/>
</clipPath>
</defs>
</svg>
