<svg xmlns="http://www.w3.org/2000/svg" width="24" height="24" viewBox="0 0 24 24" fill="none" stroke="currentColor" stroke-width="2" stroke-linecap="round" stroke-linejoin="round" class="lucide lucide-monitor-smartphone"><path d="M18 8V6a2 2 0 0 0-2-2H4a2 2 0 0 0-2 2v7a2 2 0 0 0 2 2h8"/><path d="M10 19v-3.36a1 1 0 0 1 .53-.88l1.62-1a1 1 0 0 1 1.34.44l1.42 2.84a1 1 0 0 0 .88.53H22a1 1 0 0 1 1 1V19a2 2 0 0 1-2 2h-1a2 2 0 0 1-2-2v-1a2 2 0 0 0-2-2h-1a2 2 0 0 0-2 2v1a2 2 0 0 1-2 2H3"/><path d="M7 15h2"/><path d="M16 21V19"/></svg>